<svg width="171" height="34" viewBox="0 0 171 34" fill="none" xmlns="http://www.w3.org/2000/svg">
<path d="M16.8951 26.1904C21.982 24.0684 24.3854 18.2244 22.2634 13.1376C20.1413 8.05074 14.2974 5.6473 9.21052 7.76934C4.12368 9.89138 1.72026 15.7353 3.8423 20.8222C5.96434 25.909 11.8083 28.3125 16.8951 26.1904Z" fill="#0B315E"/>
<path d="M121.859 0C112.489 0 104.889 7.6 104.889 16.97C104.889 26.34 112.489 33.94 121.859 33.94C131.229 33.94 138.829 26.34 138.829 16.97C138.829 7.6 131.229 0 121.859 0ZM121.859 25.07C117.389 25.07 113.769 21.45 113.769 16.98C113.769 12.51 117.389 8.89 121.859 8.89C126.329 8.89 129.949 12.51 129.949 16.98C129.949 21.45 126.329 25.07 121.859 25.07Z" fill="#F2F5FA"/>
<path d="M160.919 7.12C155.479 7.12 151.069 11.53 151.069 16.97C151.069 22.41 155.479 26.82 160.919 26.82C166.359 26.82 170.769 22.41 170.769 16.97C170.769 11.53 166.359 7.12 160.919 7.12ZM160.919 19.63C159.449 19.63 158.259 18.44 158.259 16.97C158.259 15.5 159.449 14.31 160.919 14.31C162.389 14.31 163.579 15.5 163.579 16.97C163.579 18.44 162.389 19.63 160.919 19.63Z" fill="#114A82"/>
<path d="M84.1485 8.23999C79.3185 8.23999 75.4084 12.15 75.4084 16.98C75.4084 21.81 79.3185 25.72 84.1485 25.72C88.9785 25.72 92.8885 21.81 92.8885 16.98C92.8885 12.15 88.9785 8.23999 84.1485 8.23999ZM84.1485 21.14C81.8485 21.14 79.9785 19.27 79.9785 16.97C79.9785 14.67 81.8485 12.8 84.1485 12.8C86.4485 12.8 88.3185 14.67 88.3185 16.97C88.3185 19.27 86.4485 21.14 84.1485 21.14Z" fill="#FFC200"/>
</svg>
