<svg width="120" height="120" viewBox="0 0 120 120" fill="none" xmlns="http://www.w3.org/2000/svg">
<path d="M70.67 49.9V0.929993H21.7V49.9V98.87H70.67H119.64V49.9H70.67Z" fill="#F2F5FA"/>
<path d="M100.63 119.88H0.689941V19.94H51.6599V68.91H100.63V119.88ZM2.68994 117.88H98.6299V70.91H49.6599V21.94H2.68994V117.88Z" fill="#0B315E"/>
<path d="M80.9199 1.45996H77.9399V43.96H80.9199V1.45996Z" fill="black"/>
<path d="M88.51 1.45001H85.53V43.95H88.51V1.45001Z" fill="black"/>
<path d="M96.0899 1.45996H93.1099V43.96H96.0899V1.45996Z" fill="black"/>
<path d="M103.67 1.45996H100.69V43.96H103.67V1.45996Z" fill="black"/>
<path d="M111.25 1.45001H108.27V43.95H111.25V1.45001Z" fill="black"/>
<path d="M118.74 1.45996H115.85V43.96H118.74V1.45996Z" fill="black"/>
</svg>
